<?xml version="1.0" encoding="utf-8"?>
<!-- Generator: Adobe Illustrator 28.0.0, SVG Export Plug-In . SVG Version: 6.00 Build 0)  -->
<svg version="1.1"
	 id="svg1537" xmlns:svg="http://www.w3.org/2000/svg" xmlns:dc="http://purl.org/dc/elements/1.1/" xmlns:rdf="http://www.w3.org/1999/02/22-rdf-syntax-ns#" xmlns:cc="http://creativecommons.org/ns#"
	 xmlns="http://www.w3.org/2000/svg" xmlns:xlink="http://www.w3.org/1999/xlink" x="0px" y="0px" viewBox="0 0 163.8 163.8"
	 style="enable-background:new 0 0 163.8 163.8;" xml:space="preserve">
<style type="text/css">
	.st0{opacity:0.23;}
</style>
<path class="st0" d="M89.8,138.2l1.1,0c0.1,1.8,0.1,3.6,0.1,5.4c-0.4-0.5-0.8-1-1.1-1.5l-2.9-3.8C87.9,138.2,88.9,138.2,89.8,138.2z
	"/>
<path class="st0" d="M91,16.8L91,16.8c0.2,0.6-0.2,4.8-0.2,5.7c-1.2,0-2.4-0.1-3.6-0.1l-0.1,0l0-0.1C88.3,20.4,89.7,18.6,91,16.8z"
	/>
<path class="st0" d="M72.8,138.1l4.1,0.1c-0.7,1.1-1.5,2.2-2.3,3.2c-0.6,0.8-1.1,1.5-1.7,2.2C72.7,141.8,72.8,140,72.8,138.1z"/>
<path class="st0" d="M72.8,16.6c0.5,0.4,3.7,5,4.2,5.8c-1.3,0-2.7,0-4,0.1C73,20.5,72.9,18.5,72.8,16.6z"/>
<path class="st0" d="M81.9,136.9c0.1,0.1,0.2,0.2,0.2,0.3c0.6,1.3,0.9,2.7,1.4,4.1c0.7,2,1.5,4.1,2.1,6.2c-1.3,0-2.5,0.1-3.8,0.1
	l-3.7,0C78.7,145.8,81.2,137.7,81.9,136.9z"/>
<path class="st0" d="M78.2,13l7.6,0c-0.9,2.8-1.7,5.6-2.7,8.3c-0.4,1-0.7,2-1.2,3c-0.7-1.6-1.1-3.4-1.6-5.1
	C79.6,17.1,78.9,15.1,78.2,13z"/>
<path class="st0" d="M40.3,95.6c6.8-0.2,13.6,0,20.3,0c0,1.7,0,3.4,0,5.1l-10.1,0c-1.6,0-4,0.2-5.5-0.1c-0.9-0.2-1.8-0.6-2.6-1.2
	C41.2,98.5,40.5,97.1,40.3,95.6z"/>
<path class="st0" d="M105.2,95.4c6.1,0,12.3,0,18.4,0c-0.6,1.7-1.7,3-3.2,4.1c-0.9,0.5-1.9,1-2.9,1.2c-1.8,0.3-3.7,0.1-5.5,0.1
	l-8.8,0l0-5.3C103.9,95.4,104.6,95.4,105.2,95.4z"/>
<path class="st0" d="M59.7,88l0.9,0l0,5.1l-18.8,0l-5,0c-1.1,0-2.3,0.1-3.4-0.1c-1-0.2-1.9-0.7-2.7-1.3c-1.2-1-1.8-2.2-2.3-3.7
	c3.2-0.1,6.4,0,9.5,0L59.7,88z"/>
<path class="st0" d="M112.7,87.9l21.9,0c-0.3,1.3-0.8,2.5-1.8,3.4c-2.2,2.2-4.9,2-7.8,1.9c-7.3,0.1-14.5,0.1-21.8,0l0-5.3
	L112.7,87.9z"/>
<path class="st0" d="M19.1,80.1c3.4-0.1,6.7,0,10.1,0L52,80.2c0.2,0.4,0.4,0.7,0.7,1c0.2,0.3,0.5,0.6,0.8,0.9c0.6,0.6,3.9,3.1,4,3.4
	c-7.9-0.1-15.8,0-23.7,0l-6,0c-1.1,0-2.3,0.1-3.5-0.1c-1-0.1-1.8-0.5-2.7-1.1C20.1,83.3,19.4,81.9,19.1,80.1z"/>
<path class="st0" d="M143.4,80.1l1.2,0c-0.2,1.4-0.7,2.8-1.7,3.9c-0.7,0.7-1.8,1.3-2.8,1.4c-1.2,0.2-2.6,0.1-3.8,0.1l-7.3,0
	c-7.1,0-14.2,0-21.2,0.1l-1.5,0c0.7-0.5,5.2-4.4,5.3-4.8c0.1-0.2,0-0.4,0.1-0.6c1.2-0.1,2.5,0,3.7,0l6.8,0L143.4,80.1z"/>
<path class="st0" d="M23.9,98.2c0.9,0,1.8,0,2.7,0.1c1.5,4.7,3.2,8.9,5.8,13.2c3.2,5.4,7.4,10,12.3,13.9c0.9,0.7,1.7,1.4,2.6,2.1
	c0.4,0.3,0.7,0.5,1.1,0.8c0.4,0.3,0.7,0.5,1.1,0.8c0.4,0.3,0.8,0.5,1.1,0.7c0.4,0.2,0.8,0.5,1.2,0.7c0.4,0.2,0.8,0.5,1.2,0.7
	c0.4,0.2,0.8,0.4,1.2,0.7s0.8,0.4,1.2,0.6c0.4,0.2,0.8,0.4,1.2,0.6c0.4,0.2,0.8,0.4,1.2,0.6c0.4,0.2,0.8,0.4,1.3,0.5
	c0.4,0.2,0.8,0.3,1.3,0.5c0.4,0.2,0.9,0.3,1.3,0.5c0.4,0.2,0.9,0.3,1.3,0.4c0.4,0.1,0.9,0.3,1.3,0.4c0.4,0.1,0.9,0.3,1.3,0.4
	c0.4,0.1,0.9,0.2,1.3,0.3c0,1,0,2.1,0,3.1c-2.5-0.7-5-1.5-7.4-2.4c-11.1-4-21.3-12.4-28-22c-1.1,0.4-2.1,1-3.1,1.5
	c-1.7,0.9-3.5,1.7-5.2,2.6c1.9-2.7,4.1-5.2,6-7.9c-0.6-1.3-1.3-2.5-1.9-3.7c-0.4-0.8-0.7-1.6-1-2.3c-0.3-0.8-0.6-1.6-0.9-2.4
	c-0.3-0.8-0.5-1.6-0.8-2.4C24.3,99.8,24.1,99,23.9,98.2z"/>
<path class="st0" d="M137.4,98.2c0.8,0.1,1.7,0,2.6,0.1c-0.7,3-3.5,11.2-5.4,13.6c2.3,2.3,4.9,4.9,6.7,7.6c-3.1-1.3-6.3-2.5-9.4-3.9
	c-0.9,1.6-1.9,3.2-3,4.7c-1,1.3-2.1,2.4-3.3,3.6c-0.3,0.3-0.7,0.7-1,1c-0.3,0.3-0.7,0.6-1,1c-0.4,0.3-0.7,0.6-1.1,0.9
	c-0.4,0.3-0.7,0.6-1.1,0.9c-0.4,0.3-0.7,0.6-1.1,0.9c-0.4,0.3-0.7,0.6-1.1,0.9c-0.4,0.3-0.8,0.6-1.1,0.8c-0.4,0.3-0.8,0.5-1.2,0.8
	c-0.4,0.3-0.8,0.5-1.2,0.8c-0.4,0.3-0.8,0.5-1.2,0.8c-0.4,0.2-0.8,0.5-1.2,0.7c-0.4,0.2-0.8,0.5-1.2,0.7c-0.4,0.2-0.8,0.4-1.3,0.7
	c-0.4,0.2-0.8,0.4-1.3,0.6c-0.4,0.2-0.9,0.4-1.3,0.6c-0.4,0.2-0.9,0.4-1.3,0.6c-1.1,0.5-2.3,0.9-3.4,1.3c-2,0.7-4.1,1.4-6.1,2
	c0-1-0.2-2-0.3-3c3.4-0.8,6.9-2.1,10.1-3.5c1.4-0.7,2.8-1.5,4.2-2.3c6.7-3.9,11.3-8.1,16.2-14c2-2.4,3.9-4.8,5.4-7.6
	c0.6-1.1,1.2-2.3,1.7-3.4c0.5-1.2,1-2.4,1.4-3.6C136.5,100.9,136.9,99.5,137.4,98.2z"/>
<path class="st0" d="M111.6,72c4.1,0,8.2,0,12.4,0l26.6,0c-0.2,1.7-0.5,2.8-1.6,4c-0.1,0.1-0.2,0.2-0.3,0.3
	c-0.1,0.1-0.2,0.2-0.3,0.2c-0.1,0.1-0.2,0.2-0.3,0.2c-0.1,0.1-0.2,0.1-0.3,0.2c-0.1,0.1-0.2,0.1-0.4,0.2s-0.2,0.1-0.4,0.1
	c-0.1,0-0.3,0.1-0.4,0.1c-0.1,0-0.3,0.1-0.4,0.1c-1.4,0.2-2.8,0.1-4.2,0.1l-6.4,0l-23.9,0L111.6,72z"/>
<path class="st0" d="M66.9,20.7c0.2,0.2,0.1,2.5,0.1,2.9c-4.5,1.3-8.8,2.9-12.9,5.2c-14.8,8.3-24.3,21.5-28.9,37.7l-3,0
	c0.3-1.3,0.6-2.5,1-3.8c0.4-1.2,0.8-2.5,1.3-3.7c0.7-1.9,1.5-3.8,2.5-5.5c0.7-1.3,1.5-2.6,2.1-3.9c-2.2-2.7-4.5-5.5-6.7-8.2
	c3.2,1,6.3,2.4,9.4,3.6c1.1-1.6,2.5-3.2,3.8-4.7c0.4-0.5,0.8-0.9,1.2-1.4c0.4-0.5,0.8-0.9,1.3-1.3c0.4-0.4,0.9-0.9,1.3-1.3
	c0.4-0.4,0.9-0.8,1.3-1.3c0.5-0.4,0.9-0.8,1.4-1.2c0.5-0.4,0.9-0.8,1.4-1.2c0.5-0.4,1-0.8,1.4-1.1c0.5-0.4,1-0.7,1.5-1.1
	c0.5-0.4,1-0.7,1.5-1.1c0.5-0.3,1-0.7,1.5-1c0.5-0.3,1-0.6,1.6-1c0.5-0.3,1.1-0.6,1.6-0.9c0.5-0.3,1.1-0.6,1.6-0.9
	c0.5-0.3,1.1-0.6,1.6-0.8c0.6-0.3,1.1-0.5,1.7-0.8c0.6-0.2,1.1-0.5,1.7-0.7C61.8,22.2,64.3,21.5,66.9,20.7z"/>
<path class="st0" d="M13.2,72L52,72.1l0,5.6l-23.8,0l-6.3,0c-1.3,0-2.7,0.1-4-0.1c-1.1-0.2-2.1-0.7-2.9-1.4
	C13.7,75.1,13.3,73.6,13.2,72z"/>
<path class="st0" d="M97.6,20.9c1.6,0.4,3.2,1,4.8,1.6c0.6,0.2,1.1,0.4,1.7,0.6s1.1,0.5,1.7,0.7c0.6,0.2,1.1,0.5,1.7,0.7
	c0.6,0.3,1.1,0.5,1.7,0.8c0.5,0.3,1.1,0.6,1.6,0.8c0.5,0.3,1.1,0.6,1.6,0.9c0.5,0.3,1.1,0.6,1.6,0.9c0.5,0.3,1,0.6,1.6,1
	c0.5,0.3,1,0.7,1.5,1c0.5,0.4,1,0.7,1.5,1.1c0.5,0.4,1,0.7,1.5,1.1s1,0.8,1.4,1.2c0.5,0.4,0.9,0.8,1.4,1.2c0.5,0.4,0.9,0.8,1.4,1.2
	c0.4,0.4,0.9,0.8,1.3,1.3c0.4,0.4,0.9,0.9,1.3,1.3c1.9,2,3.6,4.3,5.2,6.5c3.1-1.3,6.2-2.3,9.3-3.5c-1.2,1.6-2.5,3.1-3.9,4.6
	c-0.9,1-1.9,2.1-2.7,3.2c1.9,2.6,3.8,7.2,4.9,10.3c0.9,2.3,1.7,4.7,2.2,7.1l-3,0c-0.5-1.3-0.8-2.7-1.2-4c-0.5-1.5-1.1-3.1-1.7-4.6
	c-0.6-1.5-1.3-3-2.1-4.4c-0.5-0.9-1-1.8-1.5-2.7c-0.5-0.9-1.1-1.7-1.6-2.6c-0.6-0.9-1.2-1.7-1.8-2.5c-0.6-0.8-1.2-1.6-1.9-2.4
	c-8.1-9.9-17.6-15.8-29.9-19.5C97.3,22.8,97.5,21.8,97.6,20.9z"/>
<path class="st0" d="M31,66.5c0.7-2.4,1.6-4.7,2.7-7c4.9-10.7,12.9-20,23.3-25.7c11.6-6.3,26.3-8.3,39-4.5
	c13.7,4.1,25.3,13,32.2,25.6c0.5,0.9,1,1.8,1.4,2.8c0.4,0.9,0.9,1.9,1.3,2.9c0.4,1,0.8,1.9,1.1,2.9c0.3,1,0.7,2,1,3
	c-2.1,0-4.2,0-6.3,0c-0.2-1.5-1.2-3.5-1.8-4.8c-3.9-8.5-9.3-15.2-17.1-20.5c-0.7-0.5-1.5-1-2.2-1.4c-0.8-0.5-1.5-0.9-2.3-1.3
	c-0.8-0.4-1.6-0.8-2.4-1.2c-0.8-0.4-1.6-0.7-2.5-1c-0.4-0.1-0.7-0.3-1.1-0.4c-0.4-0.1-0.7-0.2-1.1-0.4c-0.4-0.1-0.7-0.2-1.1-0.3
	c-0.4-0.1-0.7-0.2-1.1-0.3c-0.4-0.1-0.7-0.2-1.1-0.3c-0.4-0.1-0.7-0.2-1.1-0.3c-0.4-0.1-0.7-0.2-1.1-0.2c-0.4-0.1-0.7-0.1-1.1-0.2
	c-0.4-0.1-0.8-0.1-1.1-0.2c-0.4-0.1-0.8-0.1-1.1-0.1c-0.4,0-0.8-0.1-1.1-0.1c-0.4,0-0.8-0.1-1.1-0.1c-0.4,0-0.8,0-1.1-0.1
	c-0.4,0-0.8,0-1.1,0c-0.4,0-0.8,0-1.1,0c-0.4,0-0.8,0-1.1,0c-0.4,0-0.8,0-1.1,0.1c-0.4,0-0.8,0-1.1,0.1c-0.4,0-0.8,0.1-1.1,0.1
	c-0.4,0-0.8,0.1-1.1,0.1c-0.4,0.1-0.8,0.1-1.1,0.2C74.4,34,74,34,73.6,34.1c-0.4,0.1-0.7,0.1-1.1,0.2c-0.4,0.1-0.7,0.2-1.1,0.2
	c-0.4,0.1-0.7,0.2-1.1,0.3c-0.4,0.1-0.7,0.2-1.1,0.3c-0.4,0.1-0.7,0.2-1.1,0.3c-0.4,0.1-0.7,0.2-1.1,0.4c-0.4,0.1-0.7,0.3-1.1,0.4
	c-0.4,0.1-0.7,0.3-1.1,0.4c-0.4,0.1-0.7,0.3-1.1,0.4c-0.3,0.2-0.7,0.3-1,0.5c-0.3,0.1-0.6,0.3-0.9,0.4c-0.3,0.1-0.6,0.3-0.9,0.4
	c-0.3,0.2-0.6,0.3-0.9,0.5c-0.3,0.2-0.6,0.3-0.9,0.5c-0.3,0.2-0.6,0.3-0.9,0.5c-0.3,0.2-0.6,0.3-0.8,0.5c-0.3,0.2-0.6,0.4-0.8,0.5
	c-0.3,0.2-0.6,0.4-0.8,0.6c-0.3,0.2-0.5,0.4-0.8,0.6c-0.3,0.2-0.5,0.4-0.8,0.6c-0.3,0.2-0.5,0.4-0.8,0.6c-0.3,0.2-0.5,0.4-0.8,0.6
	c-0.3,0.2-0.5,0.4-0.8,0.6c-0.3,0.2-0.5,0.4-0.8,0.6c-0.2,0.2-0.5,0.4-0.7,0.7c-0.2,0.2-0.5,0.4-0.7,0.7c-0.2,0.2-0.5,0.5-0.7,0.7
	c-0.2,0.2-0.5,0.5-0.7,0.7c-0.2,0.2-0.5,0.5-0.7,0.7c-0.2,0.2-0.4,0.5-0.7,0.7c-0.2,0.2-0.4,0.5-0.6,0.7c-0.2,0.3-0.4,0.5-0.6,0.8
	c-0.2,0.3-0.4,0.5-0.6,0.8c-0.2,0.3-0.4,0.5-0.6,0.8c-0.2,0.3-0.4,0.5-0.6,0.8c-0.2,0.3-0.4,0.5-0.6,0.8c-0.2,0.3-0.4,0.5-0.6,0.8
	c-0.2,0.3-0.4,0.6-0.5,0.8c-0.2,0.3-0.3,0.6-0.5,0.8c-0.2,0.3-0.3,0.6-0.5,0.9c-0.2,0.3-0.3,0.6-0.5,0.9c-0.2,0.3-0.3,0.6-0.5,0.9
	c-1.2,2.4-2.2,4.9-3.1,7.4l-1.2,0L31,66.5z"/>
<path class="st0" d="M126.3,95.7c2.5,0.1,3.7,0.2,6.2-0.8c-0.6,2-1.1,4-1.8,6c-0.1,0.4-0.3,0.7-0.4,1.1c-0.2,0.3-0.3,0.7-0.5,1
	c-0.2,0.3-0.3,0.7-0.5,1c-0.2,0.3-0.3,0.7-0.5,1c-0.2,0.3-0.4,0.7-0.5,1c-0.2,0.3-0.4,0.7-0.6,1c-0.2,0.3-0.4,0.7-0.6,1
	c-0.2,0.3-0.4,0.6-0.6,1c-0.2,0.3-0.4,0.6-0.6,1c-0.2,0.3-0.4,0.6-0.6,0.9c-0.2,0.3-0.4,0.6-0.7,0.9c-0.2,0.3-0.5,0.6-0.7,0.9
	c-0.2,0.3-0.5,0.6-0.7,0.9c-0.2,0.3-0.5,0.6-0.7,0.9c-0.2,0.3-0.5,0.6-0.7,0.9c-0.3,0.3-0.5,0.6-0.8,0.9c-0.3,0.3-0.5,0.6-0.8,0.8
	c-0.3,0.3-0.5,0.5-0.8,0.8c-0.3,0.3-0.5,0.5-0.8,0.8c-0.3,0.3-0.6,0.5-0.8,0.8c-0.3,0.3-0.6,0.5-0.9,0.8c-0.3,0.3-0.6,0.5-0.9,0.7
	c-0.3,0.2-0.6,0.5-0.9,0.7c-0.3,0.2-0.6,0.5-0.9,0.7c-0.3,0.2-0.6,0.5-0.9,0.7c-0.3,0.2-0.6,0.4-0.9,0.7c-0.3,0.2-0.6,0.4-0.9,0.6
	c-0.3,0.2-0.6,0.4-1,0.6c-0.3,0.2-0.6,0.4-1,0.6c-0.3,0.2-0.7,0.4-1,0.6c-0.3,0.2-0.7,0.4-1,0.6c-0.3,0.2-0.7,0.4-1,0.5
	c-0.4,0.2-0.8,0.4-1.2,0.6s-0.8,0.4-1.2,0.6c-0.4,0.2-0.8,0.4-1.2,0.5c-0.4,0.2-0.8,0.3-1.2,0.5c-0.4,0.2-0.8,0.3-1.2,0.5
	c-0.4,0.2-0.8,0.3-1.2,0.4c-0.4,0.1-0.8,0.3-1.2,0.4c-0.4,0.1-0.8,0.3-1.2,0.4c-0.4,0.1-0.8,0.2-1.2,0.3c-0.4,0.1-0.8,0.2-1.3,0.3
	c-0.4,0.1-0.8,0.2-1.3,0.3c-0.4,0.1-0.8,0.2-1.3,0.3c-0.4,0.1-0.8,0.2-1.3,0.2c-0.4,0.1-0.9,0.1-1.3,0.2c-0.4,0.1-0.9,0.1-1.3,0.2
	c-0.4,0-0.9,0.1-1.3,0.1c-0.4,0-0.9,0.1-1.3,0.1c-0.4,0-0.9,0-1.3,0.1c-0.4,0-0.9,0-1.3,0c-0.4,0-0.9,0-1.3,0c-0.4,0-0.9,0-1.3,0
	c-0.4,0-0.9,0-1.3-0.1c-0.4,0-0.9-0.1-1.3-0.1c-0.4,0-0.9-0.1-1.3-0.1c-0.4,0-0.9-0.1-1.3-0.2c-0.4-0.1-0.9-0.1-1.3-0.2
	c-0.4-0.1-0.9-0.1-1.3-0.2c-0.4-0.1-0.8-0.2-1.3-0.2c-0.4-0.1-0.8-0.2-1.3-0.3c-0.4-0.1-0.8-0.2-1.3-0.3c-0.4-0.1-0.8-0.2-1.2-0.3
	c-0.4-0.1-0.8-0.2-1.2-0.4c-12.7-3.9-24.3-12.8-30.6-24.7c-0.5-0.9-0.9-1.8-1.3-2.7c-0.4-0.9-0.8-1.8-1.1-2.7
	c-0.3-0.9-0.7-1.9-1-2.8C32,97,31.7,96,31.5,95.1c2,0.7,4.1,0.5,6.3,0.5c0.2,0.8,0.4,1.5,0.7,2.3c0.4,1.1,0.8,2.1,1.3,3.2
	c1.2,2.7,2.8,5.1,4.5,7.5c5.7,7.5,12.9,12.4,21.6,15.7c0.4,0.1,0.7,0.3,1.1,0.4c0.4,0.1,0.7,0.2,1.1,0.4c0.4,0.1,0.7,0.2,1.1,0.3
	c0.4,0.1,0.7,0.2,1.1,0.3c0.4,0.1,0.7,0.2,1.1,0.3c0.4,0.1,0.7,0.2,1.1,0.2c0.4,0.1,0.7,0.2,1.1,0.2c0.4,0.1,0.8,0.1,1.1,0.2
	c0.4,0.1,0.8,0.1,1.1,0.2c0.4,0.1,0.8,0.1,1.1,0.1c0.4,0,0.8,0.1,1.1,0.1c0.4,0,0.8,0.1,1.1,0.1c0.4,0,0.8,0,1.1,0.1
	c0.4,0,0.8,0,1.1,0c0.4,0,0.8,0,1.1,0c0.4,0,0.8,0,1.1,0c0.4,0,0.8,0,1.1-0.1c0.4,0,0.8-0.1,1.1-0.1c0.4,0,0.8-0.1,1.1-0.1
	c0.4,0,0.8-0.1,1.1-0.1c0.4-0.1,0.8-0.1,1.1-0.2c0.4-0.1,0.8-0.1,1.1-0.2c0.4-0.1,0.7-0.1,1.1-0.2c0.4-0.1,0.7-0.2,1.1-0.3
	c0.4-0.1,0.7-0.2,1.1-0.3c0.4-0.1,0.7-0.2,1.1-0.3c0.4-0.1,0.7-0.2,1.1-0.3c0.4-0.1,0.7-0.2,1.1-0.4c0.4-0.1,0.7-0.3,1.1-0.4
	c0.4-0.1,0.7-0.3,1.1-0.4c0.4-0.1,0.7-0.3,1.1-0.4c0.4-0.2,0.7-0.3,1-0.5c4.5-2,8.5-4.7,12.1-8.1c1.1-1,2.1-2,3.1-3.1
	C121,107.2,124.1,101.5,126.3,95.7z"/>
<path class="st0" d="M109.5,59.2l-37.7,0c-5.8,0-11.6-0.1-17.5,0l0,13.6c0,2.3-0.1,4.7,0,6.9c0.6,0.8,1.5,1.4,2.3,2.1
	c1.3,1,2.5,2,3.8,3c0.9,0.7,1.8,1.3,2.6,2.1l0,20.1l14.4,10.3c1.5,1.1,3,2.1,4.5,3.2c2.7-1.7,5.3-3.6,7.9-5.5l8.5-5.9
	c0.9-0.6,1.9-1.3,2.8-2c-0.1-3,0-6,0-9c0-3.8,0-7.6,0-11.4c0.6-0.5,1.3-1,2-1.5c2.1-1.6,4.6-3.6,6.4-5.4l0.1-13.3
	C109.6,64.1,109.6,61.7,109.5,59.2z M108,79.3c-1.6,1.1-3,2.5-4.5,3.8c-1.2,1-2.6,1.9-3.7,3c-0.2,0.2-0.2,0.3-0.2,0.6
	c-0.1,0.7,0,1.5,0,2.2l0,4.1l0,13.5c-0.8,0.6-1.6,1.2-2.5,1.7c-5,3.6-10.2,7-15.1,10.8c-1.4-1-2.8-2.1-4.2-3.1
	c-3.3-2.4-6.6-4.8-10-7.2c-1.1-0.8-2.2-1.6-3.3-2.3l0-12c0-2.6,0-5.3,0-7.9c-0.7-0.9-1.7-1.5-2.6-2.2c-2-1.6-4.2-3.1-6.1-4.9l0-18.5
	l52.2,0L108,79.3z"/>
<path class="st0" d="M73.4,68.5c5.6-0.1,11.2,0,16.8,0l0,2.5c-1.1,0-2.9-0.3-3.8,0.5c-0.5,0.4-0.6,1.1-0.6,1.7c-0.1,1.3,0,2.7,0,4
	l0,7.5l0,9.4c0,1.4-0.1,2.8,0,4.2c0,0.4,0,0.9,0.3,1.2c0.9,1,3.3,0.7,4.5,0.7c0,0.8,0,1.6,0,2.4c-2,0.1-4,0-6,0l-10.8,0l0-2.4
	c1.1,0,3.2,0.2,4-0.5c0.5-0.5,0.5-1.1,0.5-1.7l0-16.3l0-5.3c0-1,0-2.1-0.1-3.1c0-0.5-0.1-1.2-0.5-1.6c-1-0.9-3-0.7-4.2-0.6
	L73.4,68.5z"/>
</svg>
