<?xml version="1.0" encoding="utf-8"?>
<!-- Generator: Adobe Illustrator 28.0.0, SVG Export Plug-In . SVG Version: 6.00 Build 0)  -->
<svg version="1.1" id="Слой_2" xmlns="http://www.w3.org/2000/svg" xmlns:xlink="http://www.w3.org/1999/xlink" x="0px" y="0px"
	 viewBox="0 0 163.8 163.8" style="enable-background:new 0 0 163.8 163.8;" xml:space="preserve">
<style type="text/css">
	.st0{opacity:0.23;}
</style>
<path class="st0" d="M149.1,86.3l-0.1-38.7L99.9,16.5c-4.8-3-9.5-6-14.3-9c-1.1-0.7-2.6-1.9-3.8-2.3C80.5,6,79.3,6.9,78,7.7
	l-7.3,4.6L49.1,26L26.2,40.4l-7.8,4.9c-1.2,0.7-2.5,1.4-3.6,2.3l0,68.8c8.9,5.5,17.8,11,26.6,16.7l20.6,12.9l15.8,9.9
	c1.4,0.9,2.8,1.9,4.2,2.8c1.8-1.1,3.5-2.3,5.3-3.4l8.7-5.5l24.9-15.6c7.1-4.4,14.2-8.9,21.2-13.5c2.3-1.5,5-2.9,7.2-4.6
	C149.1,106.2,149.1,96.2,149.1,86.3z M139.3,116.8c-9,5.7-18,11.4-27.1,17l-30.2,19c-0.5-0.1-14.2-8.9-15.9-10l-27.8-17.4
	c-3.9-2.5-7.9-4.9-11.9-7.4c-2.2-1.4-4.5-2.9-6.7-4.2c0.1-6.1,0-12.1,0-18.2l0-45.4c0.7-0.5,1.5-0.9,2.2-1.4c1.6-1,3.2-2,4.9-3
	l11.3-7.1L81.8,11c0.8,0.2,1.8,1.1,2.5,1.5c3.1,1.9,6.1,3.9,9.2,5.8l37.4,23.5l8.8,5.5c1.5,1,3,2,4.5,2.9l0.1,63.4
	C142.6,114.8,140.9,115.8,139.3,116.8z"/>
<path class="st0" d="M133.7,56.1c-3.4-2-6.7-4.2-10.1-6.3l-9.6-6.1L92.8,30.3l-7.3-4.6c-1.1-0.7-2.2-1.5-3.3-2.2
	c-0.1-0.1-0.2-0.1-0.4-0.1c-2.1,1.3-4.1,2.6-6.1,3.9l-13.9,8.9L37.6,51.5c-2.5,1.6-4.9,3.2-7.4,4.7l0,51.8
	c14.4,8.9,28.8,18,43.1,27.1c1,0.6,8.3,5.5,8.6,5.5l0.1-0.1c1.4-0.9,2.8-1.8,4.2-2.6l9.4-5.9l38.2-24.2L133.7,56.1z M64.4,40.3
	l7.1-4.4c3.5-2.2,7-4.4,10.5-6.6c2.8,2.1,5.9,3.8,8.8,5.7l7.4,4.5c1.7,1,3.3,2.2,5,3.2l-21.2,0c-7.1-0.1-14.2-0.2-21.3,0
	C61.9,41.8,63.2,41,64.4,40.3z M99.7,123.5c-1.7,1.1-3.4,2.1-5.1,3.2c-2.7,1.6-5.3,3.3-7.9,5c-1.4,0.9-3.4,2.4-4.9,3
	c-1.2-0.6-2.2-1.4-3.3-2.1l-5.7-3.7l-7.3-4.7c-1.5-0.9-3-1.8-4.3-2.9c1.7-0.1,3.3,0,5,0l13.2,0.1c7.8,0,15.7-0.1,23.5,0
	C101.8,122.2,100.7,122.8,99.7,123.5z M120.8,110c-3.3,2.1-6.6,4.3-9.9,6.3c-0.8,0.2-3.3,0-4.3,0l-11.5,0L53,116.2l-17.9-11
	c0-5.4,0-10.7,0-16.1l0-30.4c2.4-1.6,4.9-3.1,7.4-4.6c3.4-2.2,6.9-4.3,10.2-6.6c4.7-0.1,9.3,0,14,0l29,0l11,0c1,0,3.4-0.1,4.2,0.1
	c1,0.3,4.2,2.6,5.4,3.3c4.1,2.6,8.3,5.1,12.2,7.9l0,46.3C126,106.8,123.4,108.4,120.8,110z"/>
<path class="st0" d="M96.7,106.7c5.4,0.1,10.9,0,16.3,0c1.3-1.1,2.5-2.4,3.7-3.6c2.7-2.7,5.4-5.4,8.1-8.1c0.1-8.6,0-17.3,0.1-25.9
	c-1.2-1.5-2.6-2.9-4-4.3c-2.2-2.4-4.4-4.9-6.9-7.2l-19,0.1l0,48.5 M114.2,95.9c-1.2,1.3-2.6,2.5-3.8,3.8l-10.1,0l0-35.3l10.3,0
	c1.3,1.1,2.5,2.4,3.7,3.6c1.2,1.2,2.4,2.4,3.6,3.5l0,20.6C116.6,93.4,115.4,94.7,114.2,95.9z"/>
<path class="st0" d="M89.6,82.4c0.1-8.3,0.1-16.5,0-24.8c-1.7,0-3.4,0-5.1,0l0,27.8c0,2.9,0,5.8,0,8.7L69.1,57.5c-1.7,0-3.4,0-5.1,0
	l0,27.8c0,7-0.1,13.9,0,20.9c1.3,0,4,0.1,5.1-0.1l-0.1-23.8c0-4.2,0-8.4,0-12.6l15.4,36.6c1.3,0,4,0.1,5.1-0.1L89.6,82.4z"/>
<path class="st0" d="M51.9,78.2c0-4.6,0-9.2,0-13.8l6.2,0l0-6.6l-18.3,0c0,2.2-0.1,4.4,0,6.6c1.6,0,3.1,0,4.7,0l0,35.7h-4.7v6.6
	h18.3v-6.6h-6.2L51.9,78.2z"/>
</svg>
