<?xml version="1.0" encoding="utf-8"?>
<!-- Generator: Adobe Illustrator 28.0.0, SVG Export Plug-In . SVG Version: 6.00 Build 0)  -->
<svg version="1.1" xmlns="http://www.w3.org/2000/svg" xmlns:xlink="http://www.w3.org/1999/xlink" x="0px" y="0px"
	 viewBox="0 0 163.8 163.8" style="enable-background:new 0 0 163.8 163.8;" xml:space="preserve">
<style type="text/css">
	.st0{opacity:0.23;}
	.st1{opacity:0.23;fill:#333333;}
	.st2{opacity:0.23;fill:#606060;}
	.st3{opacity:0.23;fill:#474747;}
</style>
<g id="svg1537" xmlns:svg="http://www.w3.org/2000/svg" xmlns:dc="http://purl.org/dc/elements/1.1/" xmlns:rdf="http://www.w3.org/1999/02/22-rdf-syntax-ns#" xmlns:cc="http://creativecommons.org/ns#">
</g>
<g id="Слой_3">
	<path class="st0" d="M63.4,82.2c0.3,0.1,0.9,1,1.1,1.3c-1.1,1-2.5,2-3.7,2.9c-0.1,0,0,0-0.1,0c-0.3-0.4-0.8-1.1-0.9-1.6
		c0.3-0.3,0.8-0.6,1.2-0.9C61.8,83.3,62.6,82.8,63.4,82.2z"/>
	<path class="st0" d="M40.9,106.2c0.3-0.3,0.7-0.5,1.1-0.8c1-0.8,2.1-1.5,3.2-2.3l8.5-6.1c1-0.7,2-1.4,3-2.2
		c0.3-0.3,0.8-0.5,1.1-0.8c0.4-0.5,0.9-2.5,1.4-3.2c0.1,0,0.1,0,0.2,0.1l0.1,0.2c-0.4,1-0.8,2.1-1.2,3.2c-0.5,0.4-1.1,0.7-1.6,1.1
		l-3.9,2.8c-3.9,2.7-7.8,5.5-11.6,8.4C41.1,106.5,41,106.3,40.9,106.2z"/>
	<path class="st0" d="M110,47.1l3.4,3c0.8,0.7,1.5,1.3,2.3,2.1c0.7-0.4,1.3-0.9,1.9-1.3c0.5,0.8,1.1,1.5,1.6,2.3
		c-0.6,0.6-1.4,1-2.1,1.5l-3.5,2.5l-9.3,6.7c0.1,0.2,0.2,0.3,0.3,0.5c-0.1,0.3-0.8,0.7-1,0.8c-0.1,0-0.1,0-0.2,0.1l-0.1,0
		c-0.1-0.1-0.2-0.1-0.3-0.1c-0.3,0-0.6,0.4-0.8,0.5c0.1,0.7,0.1,1.5-0.4,2.1c-0.4,0.5-1,0.8-1.5,1.2c-0.7,0.5-1.5,1-2.2,1.6
		c0.2,0.3,0.2,0.6,0.2,0.9c-0.1,0.3-0.3,0.6-0.5,0.9c-0.4,0.4-0.8,0.6-1.3,0.9c-0.5,0.3-0.9,0.7-1.4,1c-1.8,1.3-3.7,2.7-5.5,4
		c-1.5,1-3,2.1-4.5,3.1c0.7,0.8,1.6,1.5,2.4,2.1c4,3,8.7,4.7,13.7,5.2c0.3,0.1,0.6,0.1,0.9,0.2c0.2,0,0.4,0,0.6,0
		c-0.2,0.9-0.2,1.8-0.4,2.7c-0.2,2-0.5,4.1-0.7,6.1c-1.1-0.2-2.2-0.3-3.3-0.5c-5-1.1-9.5-3.2-13.7-6.3c-1.1-0.8-2.9-2.2-3.8-3.2
		c-0.7,0.5-1.7,1-1.8,1.9c-0.2,0.7,0,1.4-0.3,2.1c-0.1,0.3-0.3,0.5-0.5,0.7c-0.4,0.4-0.9,0.8-1.4,1.1l-2.6,2
		c-0.6,0.4-1.2,0.9-1.7,1.4c0.5,2.1,1.2,4.1,1.8,6.1c0.2,0.7,0.4,1.5,0.7,2.2c0.1,0,0.2,0,0.3,0c0,0,0,0,0,0
		c0.2,0.1,0.3,0.3,0.4,0.5c0.1,0.2,0,0.5-0.1,0.7c-0.1,0.2-0.4,0.4-0.6,0.5c-0.8,0.3-1.7,0.5-2.5,0.7c-0.7,0.2-1.4,0.5-2.2,0.6
		c-0.3,0.1-0.7,0.1-1-0.1c-0.2-0.1-0.4-0.4-0.5-0.7c0-0.1,0-0.3,0-0.4c0-0.6-0.2-1.4-0.3-2l-0.9-4.8c-0.1-0.8-0.3-1.7-0.4-2.5
		c-0.8-0.5-1.3-1.1-1.9-1.8c-0.6,0.4-1.5,1-2,1.5c-0.9,1.1-1.8,2.5-2.6,3.8c-0.5,0.8-1,1.6-1.4,2.4c-0.4,0.7-0.9,1.4-1.3,2
		c-1,1.8-1.9,3.6-2.9,5.4l-3.6,6.6c-0.3,0.6-0.7,1.3-1.1,1.9c-0.9-1.2-1.8-2.4-2.7-3.6l-3.9-5.1c-0.7-0.9-1.4-1.8-2-2.7
		c-0.2-0.3-0.5-0.6-0.7-1c0.4-0.2,1.8-1.4,2-1.4l0.1,0.1c0.3-0.1,0.8-0.4,1.1-0.6c0.7-0.5,1.4-1,2.1-1.5c2.7-1.9,5.4-3.8,8.1-5.7
		c0.6-0.4,3.8-2.6,4-2.9c0.1-0.1,1-2.9,1-3.2c-0.1-0.2-0.2-0.3-0.4-0.5l-0.1-0.2c0.2-0.7,0.3-1.3,0.4-2c0.6-0.5,1.3-0.9,2-1.4
		c1.1-0.8,2.2-1.6,3.3-2.4c1.2-0.9,2.4-1.7,3.6-2.6c0.5-0.4,1.1-0.8,1.7-1.2c0,0,0,0,0,0c0.1-0.1,0.1-0.1,0.1-0.2c0,0-0.1,0-0.1,0
		c-0.1,0-0.3,0.1-0.4,0.2c-0.3,0.2-0.6,0.4-0.9,0.7c-1,0.7-2,1.4-3,2.1l-6.3,4.5c0-0.4-0.1-0.7-0.1-1.1c0.8-0.6,1.6-1.2,2.3-1.8
		c0.6-0.5,1.2-1,1.8-1.4c1-0.8,2-1.5,3.1-2.3c0.8-0.6,1.6-1.1,2.3-1.6c-0.1-0.2-0.2-0.3-0.2-0.5c0-0.2,0-0.3,0.1-0.5
		c0.2-0.3,4-3,4.6-3.4c3.6-2.7,7.2-5.3,10.8-7.9l3.6-2.6c0.7-0.5,1.5-1.1,2.2-1.6c0.3-0.2,0.6-0.4,1-0.5c0.6-0.1,1.2,0.3,1.6,0.7
		c0.4-0.4,1-0.7,1.5-1.1c0.8-0.6,1.5-1.1,2.3-1.7c0.5,0.4,1.1,0.7,1.6,1.1c0.4-0.3,1.5-1.2,2-1.2c0.1,0,0.2-0.1,0.3-0.1
		c0.3-0.2,0.8-0.7,1.2-0.7c0.1,0,0.2,0.2,0.3,0.3c1.4-0.9,2.8-2,4.2-3c1.1-0.7,2.1-1.5,3.2-2.3c0.7-0.5,1.4-0.9,2-1.5
		c-0.6-1.2-1.1-2.4-1.6-3.7c-0.3-0.8-0.8-1.7-1-2.5C109.3,47.6,109.7,47.4,110,47.1z"/>
	<path class="st1" d="M80.1,79.2c0,0,0-0.1,0-0.1c0.1-0.5,2-1.8,2.4-2.1c0.6-0.4,1.1-0.9,1.7-1.2c0.3-0.2,0.8-0.6,1.2-0.5
		c-0.8,0.7-1.7,1.3-2.5,1.9C82,77.8,81.1,78.5,80.1,79.2z"/>
	<path class="st2" d="M87.5,74.2c0.6,0.8,2,2.3,2.3,3.2l-0.5,0.3c-0.9-1-1.6-2-2.4-3.1L87.5,74.2z"/>
	<path class="st1" d="M67.6,96.4c0.3,0.2,0.5,0.4,0.8,0.6c0.2,1.1,0.4,2.3,0.6,3.5c0.3,2,0.7,3.9,1.1,5.9c0,0.3,0.1,0.6,0.1,0.8
		c-0.2-0.1-0.4-0.2-0.6-0.3c-0.2-0.7-0.2-1.4-0.3-2.1l-0.9-5C68.3,98.7,68.1,97.5,67.6,96.4z"/>
	<path class="st1" d="M75.2,105c0.1,0,0.2,0,0.3,0c-0.1,0.1-0.1,0.1-0.1,0.3c0,0.2,0,0.4-0.1,0.5c-0.1,0.1-0.4,0.2-0.6,0.3
		c-0.4,0.1-4.1,1.2-4.4,1.2c-0.1,0-0.1,0-0.1,0c0-0.3-0.1-0.6-0.1-0.8c1.2-0.4,2.4-0.7,3.7-1.1C74.3,105.2,74.7,105.1,75.2,105z"/>
	<path class="st1" d="M94.6,65.7c0.6-0.5,1.3-0.9,2-1.4c1.2-0.9,2.5-1.9,3.8-2.7c0.3,0.3,0.6,0.7,0.9,1.1c-0.3,0.2-0.6,0.4-0.9,0.6
		c0.1,0.1,0.2,0.2,0.4,0.3l0,0l-0.1,0c-0.1,0-0.2-0.1-0.2-0.2l0,0l0,0c-0.1,0.1-0.3,0.2-0.4,0.4c0,0.1,0,0.1,0,0.2
		c-0.4,0.4-0.9,0.7-1.4,1l-2.9,2C95.3,66.6,95,66.1,94.6,65.7z"/>
	<path class="st3" d="M100.7,88.9c0.5,0.1,1.1,0.2,1.6,0.3c-0.2,1.1-0.3,2.1-0.4,3.2l-0.6,4.4c-0.5-0.1-1.1-0.2-1.6-0.3L100.7,88.9z
		"/>
	<path class="st3" d="M80.7,84.7c0.6,0.4,1.1,1,1.6,1.5c0.6,0.6,1.2,1.1,1.8,1.6c4.4,3.6,9.5,6.3,15.1,7.1c-0.1,0.5-0.1,1-0.2,1.5
		l-0.6-0.1c-1.2-0.3-2.4-0.6-3.5-0.9c-4.4-1.5-8.5-4-12-7c-1.1-0.9-2.2-1.9-3.1-2.9C80,85.2,80.3,84.9,80.7,84.7z"/>
	<path class="st3" d="M95.8,68c0.6,0.7,1.5,1.7,1.9,2.5c0.1,0.2,0.1,0.5,0.1,0.7c-0.1,0.5-0.5,0.8-0.9,1.1c-0.8,0.6-1.7,1.1-2.5,1.7
		c-0.9,0.7-1.8,1.3-2.7,2c-0.6,0.4-1.2,0.9-1.8,1.3c-0.3-0.8-1.7-2.3-2.3-3.2c1.8-1.4,3.7-2.9,5.6-4.3C94,69.3,94.9,68.6,95.8,68z"
		/>
	<path class="st3" d="M92.1,64.1c0.1,0,0.3,0.1,0.4,0.2c0.3,0.2,0.5,0.5,0.7,0.7c0.8,0.9,1.5,1.8,2.2,2.7c-0.9,0.6-1.8,1.3-2.7,2
		c-1.4,1.1-2.9,2.1-4.3,3.2c-0.6,0.5-1.2,1-1.8,1.5c-0.2-0.4-0.5-0.7-0.8-1.1c-0.8-1-1.6-2-2.4-3c0.2-0.1,0.4-0.3,0.6-0.4
		c1.1-0.7,2.1-1.4,3.1-2.1C88.8,66.5,90.5,65.2,92.1,64.1z"/>
	<path class="st1" d="M86.1,69.4c0,0,0.1,0,0.1,0c0,0,0,0,0,0s0,0,0,0c0,0,0,0,0,0c0,0,0,0,0,0s0,0,0,0c0,0,0,0,0,0c0,0,0,0,0,0
		c0,0,0,0,0,0c0.1,0.1,0.1,0.3,0,0.4c-0.1,0.2-0.2,0.3-0.4,0.3c0,0-0.1,0-0.1,0c-0.1,0-0.3-0.1-0.3-0.3c-0.1-0.1-0.1-0.2,0-0.4
		C85.7,69.6,85.9,69.5,86.1,69.4z"/>
	<path class="st2" d="M83.4,70.2c0.2-0.1,0.4-0.3,0.6-0.4c0.4,0.6,2,2.4,1.9,3c0,0.1-0.1,0.2-0.1,0.3C85.1,72.1,84.2,71.2,83.4,70.2
		z"/>
	<path class="st3" d="M83.9,82.2c0.2,0.1,0.8,0.7,0.9,0.9c0.4,0.4,0.9,0.8,1.3,1.1c1.1,0.8,2.2,1.6,3.3,2.3c3.1,1.9,6.7,3,10.3,3.6
		c-0.3,1.3-0.4,2.7-0.6,4.1c-0.5-0.1-1.1-0.2-1.7-0.3c-5.2-1.4-9.6-3.6-13.6-7.2c-0.9-0.8-1.9-1.6-2.6-2.6L83.9,82.2z"/>
	<path class="st1" d="M71.4,82.9c0.7-0.4,1.4-1,2-1.5c0.8-0.6,1.7-1.3,2.5-1.9c0.8-0.6,1.7-1.2,2.5-1.8c0.8-0.6,1.7-1.2,2.5-1.8
		c0.5-0.3,1-0.6,1.4-1c1-0.7,1.9-1.5,3-2.1c0.2,0.3,0.4,0.6,0.6,0.9c-0.6,0.6-1.5,1.2-2.2,1.7c-1.1,0.8-2.1,1.6-3.2,2.4
		c-0.6,0.4-1.1,0.9-1.6,1.4c-0.4,0.3-0.8,0.7-1.2,1c-0.1,0.1-0.2,0.2-0.2,0.3c0.1,0.1,0.1,0.1,0.2,0.2C76.5,82,75,83,73.6,84
		l-4.8,3.6c-2,1.5-4,3-6,4.4c-0.5,0.4-1,0.8-1.5,1.1c-0.4-0.5-0.9-1.1-1.4-1.6c-0.1-0.2-0.2-0.3-0.4-0.5l-0.1-0.2
		c0.2-0.7,0.3-1.3,0.4-2c0.6-0.5,1.3-0.9,2-1.4c1.1-0.8,2.2-1.6,3.3-2.4c1.2-0.9,2.4-1.7,3.6-2.6c0.5-0.4,1.1-0.8,1.7-1.2
		C70.5,81.6,71.3,82.7,71.4,82.9z"/>
	<path class="st3" d="M59.9,91.6c0.5,0.5,1,1,1.4,1.6c0.1,0.1,0.2,0.2,0.2,0.3c0.1,0.2,0.3,0.5,0.4,0.7c0.5,0.8,1,1.5,1.4,2.3
		c-2.9,3.9-5.4,8.2-7.7,12.4c-0.8,1.4-1.5,2.8-2.3,4.2c-0.5,1-1.1,1.9-1.6,2.9c-0.6-0.8-1.3-1.6-1.9-2.5l-4-5.2l-1.5-1.9
		c-0.3-0.3-0.6-0.7-0.8-1c0.3-0.1,0.8-0.4,1.1-0.6c0.7-0.5,1.4-1,2.1-1.5c2.7-1.9,5.4-3.8,8.1-5.7c0.6-0.4,3.8-2.6,4-2.9
		C58.9,94.6,59.8,91.9,59.9,91.6z"/>
	<path class="st1" d="M58.7,98.1c0.1,0,0.2,0,0.3,0c0.1,0,0.3,0.1,0.3,0.2c0.1,0.1,0.1,0.3,0.1,0.4c-0.1,0.3-1.7,3.2-2,3.5
		c-0.1,0.1-0.2,0.2-0.4,0.2c-0.2,0-0.4,0-0.6-0.2c-0.1-0.1-0.1-0.3-0.1-0.4c0-0.3,1.8-3.1,2.1-3.5C58.5,98.2,58.6,98.2,58.7,98.1z"
		/>
	<path class="st1" d="M52.7,105.1c0.1,0,0.1,0,0.2,0c0.2,0,0.3,0.1,0.4,0.3c0.1,0.1,0.1,0.3,0.1,0.4c0,0.1-0.1,0.2-0.2,0.3
		c-0.5,0.4-1,0.8-1.5,1.2c-0.6,0.5-1.8,1.5-2.5,1.8c-0.1,0-0.1,0-0.2,0c-0.2,0-0.3-0.2-0.4-0.3c-0.1-0.1-0.1-0.3,0-0.4
		c0-0.1,0.1-0.2,0.2-0.3C49.2,107.8,52.3,105.3,52.7,105.1z"/>
	<path class="st3" d="M59.7,48.4c0.7,1.4,1.1,3,1.6,4.5c0.2,0.5,0.4,1.1,0.6,1.6c0,0.1,0,0,0.1,0.1c0.1,0,0.2,0,0.3,0
		c2.3-0.1,4.6-0.1,6.9,0c-1.1,0.8-2.3,1.6-3.4,2.3c-0.8,0.6-1.7,1.1-2.4,1.7c0.8,2.3,1.6,4.5,2.3,6.7c-1-0.7-1.9-1.4-2.9-2.1
		c-0.3-0.3-0.7-0.5-1-0.7c-0.6-0.4-1.2-0.9-1.8-1.3c-0.8,0.5-1.7,1.2-2.5,1.8c-1.2,0.9-2.4,1.7-3.5,2.6c0.2-0.9,0.6-1.8,0.9-2.7
		c0.5-1.5,1-2.9,1.5-4.4c-1.1-0.8-2.3-1.5-3.4-2.3c-0.8-0.6-1.7-1.1-2.5-1.7l5.1,0c0.6,0,1.4,0.1,2,0c0.5-1.3,1-2.6,1.5-4
		C59.2,49.9,59.4,49.1,59.7,48.4z"/>
	<path class="st3" d="M105.2,107.4c0.7,1.4,1.1,3,1.6,4.5c0.2,0.5,0.4,1.1,0.6,1.6c0,0.1,0,0,0.1,0.1c0.1,0,0.2,0,0.3,0
		c2.3-0.1,4.6-0.1,6.9,0c-1.1,0.8-2.3,1.6-3.4,2.3c-0.8,0.6-1.7,1.1-2.4,1.7c0.8,2.3,1.6,4.5,2.3,6.7c-1-0.7-1.9-1.4-2.9-2.1
		c-0.3-0.3-0.7-0.5-1-0.7c-0.6-0.4-1.2-0.9-1.8-1.3c-0.8,0.5-1.7,1.2-2.5,1.8c-1.2,0.9-2.4,1.7-3.5,2.6c0.2-0.9,0.6-1.8,0.9-2.7
		c0.5-1.5,1-2.9,1.5-4.4c-1.1-0.8-2.3-1.5-3.4-2.3c-0.8-0.6-1.7-1.1-2.5-1.7l5.1,0c0.6,0,1.4,0.1,2,0c0.5-1.3,1-2.6,1.5-4
		C104.7,108.9,104.9,108.1,105.2,107.4z"/>
	
		<rect x="15.1" y="67.7" transform="matrix(0.8206 -0.5715 0.5715 0.8206 -27.1537 51.8121)" class="st0" width="107.6" height="3"/>
	
		<rect x="42.2" y="105.7" transform="matrix(0.8206 -0.5715 0.5715 0.8206 -44.0303 74.0776)" class="st0" width="107.6" height="3"/>
</g>
</svg>
