<?xml version="1.0" encoding="utf-8"?>
<!-- Generator: Adobe Illustrator 28.0.0, SVG Export Plug-In . SVG Version: 6.00 Build 0)  -->
<svg version="1.1"
	 id="svg1537" xmlns:svg="http://www.w3.org/2000/svg" xmlns:dc="http://purl.org/dc/elements/1.1/" xmlns:rdf="http://www.w3.org/1999/02/22-rdf-syntax-ns#" xmlns:cc="http://creativecommons.org/ns#"
	 xmlns="http://www.w3.org/2000/svg" xmlns:xlink="http://www.w3.org/1999/xlink" x="0px" y="0px" viewBox="0 0 163.8 163.8"
	 style="enable-background:new 0 0 163.8 163.8;" xml:space="preserve">
<style type="text/css">
	.st0{opacity:0.23;fill:#D6D6D6;}
</style>
<path class="st0" d="M87.3,25.8c2.3,0.2,4.7,0.5,7,1c7.1,1.6,15.7,5.3,21.4,9.8c-1.1,0.9-2.2,1.8-3.3,2.6c-0.8,0.7-1.7,1.4-2.5,2.1
	c-1.5-1-2.9-1.9-4.5-2.8c-4.7-2.6-10.2-4.5-15.5-5.2c-0.4-0.8-0.8-2.4-1.1-3.3C88.4,28.6,87.8,27.2,87.3,25.8z"/>
<path class="st0" d="M56.2,119.9c1.2,0.7,2.3,1.4,3.5,2.1c3.1,1.7,6.5,3.3,9.9,4.2c2,0.6,3.9,0.9,5.9,1.3c0.4,0.9,0.6,2,0.9,3
	c0.5,1.7,1.1,3.3,1.7,5c-8.3-0.8-16.6-3.7-23.7-8c-1.4-0.9-3.1-1.8-4.3-2.9C52,122.9,54.2,121.4,56.2,119.9z"/>
<path class="st0" d="M109.7,119.9c0.8,0.8,1.8,1.5,2.7,2.3c1.1,0.9,2.1,1.8,3.2,2.7c-8.9,6.1-17.3,9.6-28.2,10.6
	c0.6-1.8,1.2-3.6,1.7-5.5c0.2-0.8,0.4-1.7,0.7-2.4c1.9-0.4,3.9-0.7,5.8-1.2C100.5,125.2,105.6,122.9,109.7,119.9z"/>
<path class="st0" d="M49.9,36.6c0.3-0.2,0.5-0.4,0.8-0.6c0.3-0.2,0.5-0.4,0.8-0.6c0.3-0.2,0.5-0.4,0.8-0.5c0.3-0.2,0.5-0.4,0.8-0.5
	c0.3-0.2,0.5-0.3,0.8-0.5s0.5-0.3,0.8-0.5c0.3-0.2,0.6-0.3,0.8-0.5c0.3-0.2,0.6-0.3,0.8-0.5c0.3-0.2,0.6-0.3,0.8-0.5
	c0.3-0.1,0.6-0.3,0.9-0.4c0.3-0.1,0.6-0.3,0.9-0.4c0.3-0.1,0.6-0.3,0.9-0.4s0.6-0.3,0.9-0.4c0.3-0.1,0.6-0.3,0.9-0.4
	c0.3-0.1,0.6-0.2,0.9-0.4c0.3-0.1,0.6-0.2,0.9-0.3c0.3-0.1,0.6-0.2,0.9-0.3c0.3-0.1,0.6-0.2,0.9-0.3c0.3-0.1,0.6-0.2,0.9-0.3
	c0.3-0.1,0.6-0.2,0.9-0.3c0.3-0.1,0.6-0.2,0.9-0.3c0.3-0.1,0.6-0.2,0.9-0.3c0.3-0.1,0.6-0.2,0.9-0.2c0.3-0.1,0.6-0.1,0.9-0.2
	c0.3-0.1,0.6-0.1,0.9-0.2c0.3-0.1,0.6-0.1,0.9-0.2c0.3-0.1,0.6-0.1,0.9-0.2c0.3-0.1,0.6-0.1,0.9-0.2c0.3,0,0.6-0.1,0.9-0.1
	c0.3,0,0.6-0.1,1-0.1c0.3,0,0.6-0.1,1-0.1c0.3,0,0.6-0.1,1-0.1c-0.3,1-2.1,7.3-2.4,7.6c-5.6,0.5-12.1,3.1-16.8,6
	c-1.1,0.7-2.2,1.5-3.3,2.3c-0.4-0.5-1-1-1.5-1.4C53,39.3,50.8,37.7,49.9,36.6z"/>
<path class="st0" d="M27.8,85c2.6,0.9,5.2,1.9,7.9,2.7c0.4,2.2,0.9,4.5,1.5,6.7c2.7,9,7.8,16.5,15,22.4c-0.8,1.4-1.6,2.8-2.4,4.2
	l-1.4,2.3c-0.7-0.4-1.3-1-1.9-1.5c-0.3-0.2-0.5-0.5-0.8-0.7c-0.3-0.2-0.5-0.5-0.8-0.7c-0.3-0.2-0.5-0.5-0.8-0.7
	c-0.3-0.3-0.5-0.5-0.8-0.8c-0.3-0.3-0.5-0.5-0.7-0.8c-0.2-0.3-0.5-0.5-0.7-0.8c-0.2-0.3-0.5-0.5-0.7-0.8c-0.2-0.3-0.5-0.5-0.7-0.8
	c-0.2-0.3-0.5-0.5-0.7-0.8c-0.2-0.3-0.4-0.6-0.7-0.8c-0.2-0.3-0.4-0.6-0.6-0.9c-0.2-0.3-0.4-0.6-0.6-0.9c-0.2-0.3-0.4-0.6-0.6-0.9
	c-0.2-0.3-0.4-0.6-0.6-0.9c-0.2-0.3-0.4-0.6-0.6-0.9c-0.2-0.3-0.4-0.6-0.6-0.9c-0.2-0.3-0.4-0.6-0.5-0.9c-0.2-0.3-0.4-0.6-0.5-0.9
	c-0.2-0.3-0.3-0.6-0.5-0.9c-0.2-0.3-0.3-0.6-0.5-1c-0.2-0.3-0.3-0.6-0.5-1c-0.2-0.3-0.3-0.6-0.5-1c-0.1-0.3-0.3-0.7-0.4-1
	c-0.1-0.3-0.3-0.7-0.4-1c-0.1-0.3-0.3-0.7-0.4-1c-0.1-0.3-0.3-0.7-0.4-1s-0.2-0.7-0.4-1c-0.1-0.3-0.2-0.7-0.3-1
	c-0.1-0.3-0.2-0.7-0.3-1c-0.1-0.3-0.2-0.7-0.3-1c-0.1-0.3-0.2-0.7-0.3-1c-0.1-0.3-0.2-0.7-0.3-1C28.4,90.4,27.9,87.7,27.8,85z"/>
<path class="st0" d="M130,87.6c0.2-0.2,0.8-0.3,1.1-0.4c2.2-0.6,4.6-1.4,6.7-2.2c-0.3,2.6-0.7,5.2-1.3,7.8
	c-2.9,11.6-9.6,23-19.1,30.4c-0.1,0-0.1,0.1-0.2,0.1c-0.9-1.3-1.7-2.6-2.5-4c-0.5-0.8-1.1-1.7-1.5-2.6c0.9-0.8,1.9-1.6,2.8-2.4
	c1.5-1.4,2.8-2.9,4-4.5c0.3-0.4,0.6-0.8,0.9-1.2c0.3-0.4,0.6-0.8,0.9-1.3c0.3-0.4,0.6-0.9,0.9-1.3c0.3-0.4,0.6-0.9,0.8-1.3
	c0.3-0.4,0.5-0.9,0.8-1.3c0.3-0.4,0.5-0.9,0.7-1.4c0.2-0.5,0.5-0.9,0.7-1.4c0.2-0.5,0.4-0.9,0.6-1.4c0.2-0.5,0.4-0.9,0.6-1.4
	c0.2-0.5,0.4-1,0.6-1.4c0.2-0.5,0.3-1,0.5-1.5c0.2-0.5,0.3-1,0.5-1.5c0.1-0.5,0.3-1,0.4-1.5c0.1-0.5,0.3-1,0.4-1.5s0.2-1,0.3-1.5
	C129.8,88.6,129.9,88.1,130,87.6z"/>
<path class="st0" d="M116.9,37.5c1.5,1.1,2.9,2.4,4.2,3.7c0.3,0.3,0.5,0.5,0.8,0.8c0.3,0.3,0.5,0.5,0.8,0.8c0.3,0.3,0.5,0.5,0.7,0.8
	c0.2,0.3,0.5,0.5,0.7,0.8c0.2,0.3,0.5,0.6,0.7,0.8c0.2,0.3,0.5,0.6,0.7,0.8c0.2,0.3,0.5,0.6,0.7,0.9c0.2,0.3,0.4,0.6,0.7,0.9
	c0.2,0.3,0.4,0.6,0.6,0.9c0.2,0.3,0.4,0.6,0.6,0.9c0.2,0.3,0.4,0.6,0.6,0.9c0.2,0.3,0.4,0.6,0.6,0.9c0.2,0.3,0.4,0.6,0.6,0.9
	c0.2,0.3,0.4,0.6,0.6,0.9c0.2,0.3,0.4,0.6,0.5,1c0.2,0.3,0.4,0.6,0.5,1c0.2,0.3,0.3,0.6,0.5,1c0.2,0.3,0.3,0.7,0.5,1
	c0.2,0.3,0.3,0.7,0.5,1c0.2,0.3,0.3,0.7,0.4,1c0.1,0.3,0.3,0.7,0.4,1c0.1,0.3,0.3,0.7,0.4,1s0.3,0.7,0.4,1c0.1,0.3,0.2,0.7,0.4,1
	c0.1,0.3,0.2,0.7,0.3,1c0.1,0.3,0.2,0.7,0.3,1c0.1,0.4,0.2,0.7,0.3,1.1c0.1,0.4,0.2,0.7,0.3,1.1c0.1,0.4,0.2,0.7,0.3,1.1
	c0.1,0.4,0.2,0.7,0.2,1.1c0.1,0.4,0.1,0.7,0.2,1.1c0.1,0.4,0.1,0.7,0.2,1.1c0.3,1.5,0.5,3.1,0.6,4.6c-1.7-0.5-3.5-1.1-5.2-1.6
	c-0.8-0.3-1.6-0.6-2.4-0.7c-0.2-0.3-0.8-3.4-0.9-4c-0.1-0.5-0.2-1-0.4-1.5c-0.1-0.5-0.3-1-0.4-1.5c-0.1-0.5-0.3-1-0.5-1.5
	c-0.2-0.5-0.3-1-0.5-1.5c-0.2-0.5-0.4-1-0.6-1.4c-0.2-0.5-0.4-0.9-0.6-1.4c-0.2-0.5-0.4-0.9-0.7-1.4c-0.2-0.5-0.5-0.9-0.7-1.4
	c-0.2-0.5-0.5-0.9-0.7-1.3c-0.3-0.4-0.5-0.9-0.8-1.3c-0.3-0.4-0.5-0.9-0.8-1.3c-0.3-0.4-0.6-0.9-0.9-1.3c-0.3-0.4-0.6-0.8-0.9-1.2
	c-0.3-0.4-0.6-0.8-0.9-1.2c-0.3-0.4-0.7-0.8-1-1.2c-0.3-0.4-0.7-0.8-1-1.2c-1.2-1.3-2.9-3.1-4.4-4c0.5-1.2,1.1-2.3,1.6-3.4
	C115.7,39.8,116.2,38.6,116.9,37.5z"/>
<path class="st0" d="M48.7,37.4c0.3,0.2,0.6,1.3,0.8,1.7c0.8,1.9,1.7,3.7,2.6,5.5c-0.6,0.6-1.2,1.1-1.8,1.6
	c-0.9,0.8-1.8,1.7-2.6,2.6c-0.2,0.2-0.4,0.4-0.6,0.7c-0.2,0.2-0.4,0.4-0.6,0.7c-0.2,0.2-0.4,0.4-0.6,0.7c-0.2,0.2-0.4,0.5-0.5,0.7
	c-0.2,0.2-0.4,0.5-0.5,0.7c-0.2,0.2-0.4,0.5-0.5,0.7c-0.2,0.2-0.3,0.5-0.5,0.7c-0.2,0.2-0.3,0.5-0.5,0.7S43,54.8,42.8,55
	c-0.2,0.2-0.3,0.5-0.5,0.7c-0.2,0.2-0.3,0.5-0.5,0.7c-0.1,0.3-0.3,0.5-0.4,0.8c-0.1,0.3-0.3,0.5-0.4,0.8c-0.1,0.3-0.3,0.5-0.4,0.8
	c-0.1,0.3-0.3,0.5-0.4,0.8c-0.1,0.3-0.3,0.5-0.4,0.8c-0.1,0.3-0.2,0.5-0.4,0.8c-0.1,0.3-0.2,0.5-0.4,0.8c-0.1,0.3-0.2,0.5-0.3,0.8
	c-0.1,0.3-0.2,0.5-0.3,0.8c-0.1,0.3-0.2,0.5-0.3,0.8c-0.1,0.3-0.2,0.5-0.3,0.8c-0.1,0.3-0.2,0.6-0.3,0.8c-0.1,0.3-0.2,0.6-0.3,0.8
	c-0.1,0.3-0.2,0.6-0.3,0.8c-0.1,0.3-0.2,0.6-0.2,0.8c-0.1,0.3-0.1,0.6-0.2,0.8c-0.1,0.3-0.1,0.6-0.2,0.9c-0.1,0.3-0.1,0.6-0.2,0.9
	C36.1,71.4,36,71.7,36,72c-0.1,0.3-0.1,0.6-0.2,0.9c0,0.3-0.1,0.6-0.1,0.9c-0.7,0.3-1.5,0.5-2.2,0.8c-1.1,0.4-2.2,0.8-3.3,1.2
	l-2.4,1c0-0.3,0-0.6,0.1-1c0-0.3,0.1-0.7,0.1-1c0-0.3,0.1-0.7,0.1-1c0-0.3,0.1-0.7,0.2-1c0.1-0.3,0.1-0.7,0.2-1
	c0.1-0.3,0.1-0.7,0.2-1c0.1-0.3,0.1-0.7,0.2-1c0.1-0.3,0.1-0.7,0.2-1c0.1-0.3,0.2-0.7,0.2-1c0.1-0.3,0.2-0.7,0.3-1
	c0.1-0.3,0.2-0.7,0.3-1c0.1-0.3,0.2-0.7,0.3-1c0.1-0.3,0.2-0.7,0.3-1c0.1-0.3,0.2-0.6,0.3-1c0.1-0.3,0.2-0.6,0.4-1
	c0.1-0.3,0.2-0.6,0.4-1c0.1-0.3,0.3-0.6,0.4-1c0.1-0.3,0.3-0.6,0.4-0.9c0.1-0.3,0.3-0.6,0.4-0.9c0.1-0.3,0.3-0.6,0.4-0.9
	c0.1-0.3,0.3-0.6,0.5-0.9c0.2-0.3,0.3-0.6,0.5-0.9c0.2-0.3,0.3-0.6,0.5-0.9c0.2-0.3,0.3-0.6,0.5-0.9c0.2-0.3,0.3-0.6,0.5-0.9
	c0.2-0.3,0.4-0.6,0.5-0.9c0.2-0.3,0.4-0.6,0.6-0.9c0.2-0.3,0.4-0.6,0.6-0.9c0.2-0.3,0.4-0.6,0.6-0.8c0.2-0.3,0.4-0.6,0.6-0.8
	c0.2-0.3,0.4-0.5,0.6-0.8c0.2-0.3,0.4-0.5,0.6-0.8c0.2-0.3,0.4-0.5,0.6-0.8C42.8,42.7,45.7,40,48.7,37.4z"/>
<path class="st0" d="M82.3,18.7c0,2.8-0.2,5.5-0.3,8.3c-0.2,6.9-0.5,13.8-0.9,20.7C72.3,48,64.1,52,58.2,58.4
	c-0.2,0.2-0.3,0.3-0.5,0.5c-0.2,0.2-0.3,0.4-0.5,0.5c-0.2,0.2-0.3,0.4-0.5,0.5c-0.1,0.2-0.3,0.4-0.4,0.6c-0.1,0.2-0.3,0.4-0.4,0.6
	c-0.1,0.2-0.3,0.4-0.4,0.6c-0.1,0.2-0.3,0.4-0.4,0.6c-0.1,0.2-0.3,0.4-0.4,0.6c-0.1,0.2-0.3,0.4-0.4,0.6c-0.1,0.2-0.2,0.4-0.4,0.6
	c-0.1,0.2-0.2,0.4-0.4,0.6c-0.1,0.2-0.2,0.4-0.3,0.6c-0.1,0.2-0.2,0.4-0.3,0.6c-0.1,0.2-0.2,0.4-0.3,0.6c-0.1,0.2-0.2,0.4-0.3,0.6
	c-0.1,0.2-0.2,0.4-0.3,0.6c-0.1,0.2-0.2,0.4-0.3,0.7c-0.1,0.2-0.2,0.4-0.3,0.7c-0.1,0.2-0.2,0.4-0.2,0.7c-0.1,0.2-0.2,0.4-0.2,0.7
	c-0.1,0.2-0.1,0.4-0.2,0.7c-0.1,0.2-0.1,0.5-0.2,0.7c-0.1,0.2-0.1,0.5-0.2,0.7c-0.1,0.2-0.1,0.5-0.2,0.7c-0.1,0.2-0.1,0.5-0.2,0.7
	c0,0.2-0.1,0.5-0.1,0.7c0,0.2-0.1,0.5-0.1,0.7c0,0.2-0.1,0.5-0.1,0.7c0,0.2-0.1,0.5-0.1,0.7c0,0.2-0.1,0.5-0.1,0.7
	c0,0.2,0,0.5-0.1,0.7c0,0.2,0,0.5,0,0.7c-6.2,0.5-12.4,0.7-18.7,0.9L24.1,80c-0.9,0-1.8,0.2-2.7,0.2c2-0.7,4-1.5,6-2.3
	c3.9-1.5,7.9-2.9,11.9-4.1c1.8-0.6,3.7-1.1,5.6-1.5c1.3-0.3,2.7-0.4,4-0.8l0.1,0c-0.9-0.5-1.7-1.1-2.5-1.7c-1.6-1.1-3.1-2.1-4.7-3.1
	c1.1,0,2.1,0.1,3.2,0.2c2.1,0.1,4.2,0.1,6.3,0.2c-0.9-0.8-1.7-1.7-2.6-2.5c-0.7-0.6-1.5-1.2-2.2-1.8c-0.9-0.7-1.7-1.4-2.6-2
	c3.5,0.9,7.1,1.7,10.6,2.4c-0.8-0.8-1.4-1.7-2.1-2.5c-1.4-1.7-2.9-3.4-4.4-5c1.6,0.7,3.2,1.3,4.8,2c1.5,0.6,2.9,1.2,4.4,1.8
	c-0.4-0.9-1-1.7-1.5-2.5c-1.4-2.1-2.8-4.2-4.3-6.2c2.8,1.4,5.5,2.7,8.2,4.2c-1.4-2.6-2.9-5.2-4.4-7.7c-0.8-1.3-1.6-2.6-2.3-3.9
	c-0.8-1.5-1.5-3-2.2-4.6c1.5,1.2,2.9,2.4,4.4,3.6c3.2,2.6,6.5,5.2,9.6,8c0-0.3-0.1-0.6-0.2-1c-0.2-2.7-0.9-5.4-1.3-8
	c1.2,1.6,2.4,3.2,3.6,4.8c0.8,1,1.6,2,2.4,3.1c0-3.4-0.3-6.8-0.6-10.2c1.3,2,2.7,4,4,6l0.7,1.2c0.9-2.8,1.6-5.7,2.5-8.5
	c1.2-3.8,2.5-7.7,3.8-11.4C80.4,23.8,81.4,21.3,82.3,18.7z"/>
<path class="st0" d="M145.1,81.3c-1.3,0.6-2.8,0.9-4.1,1.3c-2.4,0.8-4.7,1.6-7.1,2.5c-1.4,0.5-2.9,0.9-4.3,1.5
	c-3.2,1.1-6.4,1.9-9.7,2.5c-1.1,0.2-2.3,0.5-3.5,0.6c2.1,1.8,4.7,3.2,6.9,5.1c-3-0.3-5.9-0.5-8.9-0.8c0.8,0.9,1.7,1.7,2.6,2.5
	c1.6,1.4,3.2,2.8,4.8,4.2c-2.3-0.5-4.6-1-6.9-1.6c-0.8-0.2-1.6-0.5-2.4-0.6c-0.2,0-0.5-0.1-0.7,0c0,0,0,0-0.1,0c0,0.2,0,0.3,0.1,0.4
	c0.4,0.5,0.8,0.9,1.3,1.3c0.9,1,1.9,2.1,2.8,3.1c0.9,0.9,1.8,1.8,2.6,2.8c-2.1-0.7-4.1-1.5-6.1-2.2c-1.2-0.4-2.4-0.8-3.5-1.2
	c0.8,1.6,1.8,3.1,2.8,4.6c0.7,1.1,1.4,2.3,2.1,3.4c-2.1-1-4.3-2-6.3-3.1c-0.5-0.4-1.2-0.6-1.7-0.9c1.5,2.7,3.1,5.3,4.7,7.9
	c0.8,1.3,1.5,2.7,2.3,4c0.9,1.6,1.9,3.2,2.8,4.9c-1-0.9-2.1-1.7-3.1-2.6c-3.7-3.1-7.7-6-11.4-9.2c0.1,0.5,0.2,1,0.3,1.5
	c0.4,2.5,0.8,4.9,1.2,7.4c-2.2-2.5-4-5.3-6.2-7.7c0.1,0.8,0.1,1.5,0.1,2.3c0.2,2.6,0.4,5.1,0.4,7.7c-1.4-2.2-2.9-4.4-4.3-6.7
	c-0.1-0.2-0.2-0.4-0.4-0.6c-0.5,1.4-0.9,2.9-1.3,4.4c-0.6,2-1.2,4-1.8,5.9c-1.8,5.8-3.8,11.5-5.9,17.1c0.1-1.1,0.1-2.3,0.1-3.4
	l0.3-5.8l0.8-19.3c7.3-0.6,14.4-3.3,19.9-8.3c6.8-6.2,10.9-14.4,11.4-23.6c1.4,0,2.9-0.1,4.3-0.1c1.2,0,2.5-0.1,3.8-0.2
	c2.5-0.1,5.1-0.2,7.6-0.3c3.4-0.1,6.8,0.1,10.2-0.1C142.8,81.5,144,81.5,145.1,81.3z"/>
<path class="st0" d="M49.4,89.8c-2-0.4-4-0.6-6-1.1c-4-1-7.7-2.3-11.6-3.6c-3.3-1.1-6.7-2.3-10-3.6c1.6,0.1,3.3,0.1,4.9,0.1l14,0.5
	c2.9,0.1,5.9,0.1,8.8,0.3c0.1,1.7,0.2,3.4,0.6,5c1.5,7.4,5.8,14.1,11.4,19c1.9,1.6,3.9,2.9,6.1,4.1c4.6,2.4,8.6,3.3,13.7,3.8
	c0,1.9,0.1,3.7,0.2,5.6c0.1,3.7,0.2,7.4,0.4,11.1l0.4,7.5c0.1,1.4,0.2,2.8,0.2,4.1c-2-4.7-3.7-9.5-5.3-14.4l-2.6-8.8
	c-0.4-1.4-0.8-3-1.4-4.4c-0.2,0.4-0.4,0.8-0.6,1.2c-1.2,2.4-2.4,5.1-3.9,7.3c0.2-1.2,0.2-2.6,0.2-3.9c0.1-2.3,0.3-4.7,0.4-7
	c-0.9,0.9-1.7,1.9-2.5,2.9c-1.3,1.5-2.6,3.1-3.9,4.6c0.3-1.1,0.4-2.2,0.7-3.3c0.3-1.4,0.6-2.8,0.9-4.2c0.1-0.3,0.1-0.7,0.2-1
	c-2.3,1.9-4.8,3.7-7.2,5.5l-4,3.1c-0.9,0.7-1.8,1.5-2.8,2.1c2.8-5.3,5.8-10.5,9-15.7c-3,1.4-6,2.8-9,4.2c2-2.7,4-5.6,5.8-8.5
	c-0.9,0.3-1.8,0.7-2.7,1.1c-2.4,0.9-4.7,1.8-7.1,2.6c2.4-2.4,5.1-5,7.1-7.7c-3.6,0.7-7.1,1.7-10.7,2.5c1.1-0.9,2.3-1.7,3.5-2.6
	c1.5-1.2,2.9-2.4,4.4-3.7c-1.1,0.1-2.3,0-3.4,0c-2,0-3.9,0-5.9,0.1c1-0.7,2-1.3,3-1.9C46.2,91.8,47.8,90.8,49.4,89.8z"/>
<path class="st0" d="M83.4,18.8c2.6,6.5,4.9,13.1,7,19.9c0.8,2.5,1.4,4.9,2.2,7.4c0.2-0.3,0.5-0.7,0.7-1.1c1.2-1.8,2.3-3.8,3.6-5.4
	c0,1.6-0.2,3.2-0.3,4.7l-0.4,5l4.6-5.1c0.7-0.8,1.4-1.7,2.2-2.5c-0.7,3-1.6,6-2.4,8.9c0.5-0.4,1.5-1.2,1.8-1.6
	c1.1-0.9,2.2-1.8,3.3-2.7l5-4c1.6-1.3,3.1-2.6,4.7-3.8c-0.6,1.2-1.3,2.4-1.9,3.6c-2.2,4.3-4.3,8.6-6.9,12.7c0.6-0.2,1.4-0.5,1.8-0.9
	c2.2-1.1,4.1-2.7,6.3-3.7c-1,1.6-2,3.2-3.1,4.8c-0.8,1.3-1.8,2.6-2.5,4c3.3-0.9,6.5-2.1,9.7-3.1c-1.4,1.5-2.8,2.9-4.3,4.4
	c-0.7,0.7-1.5,1.4-2.1,2.1c-0.1,0.1-0.2,0.2-0.2,0.4c1,0.3,8.2-1.4,9.8-1.7c-0.8,0.6-7.5,5.8-7.6,6l0,0.1c1.1,0.4,7.8,0,9.4-0.1
	c-1.8,1.2-3.6,2.3-5.5,3.4c-0.7,0.4-1.6,0.8-2.2,1.3c2.4,0.4,4.7,0.9,7,1.5c2.3,0.6,4.6,1.2,6.9,2c1.1,0.5,2.4,0.8,3.5,1.2
	c3,1.1,6.1,2,9.2,3c0.8,0.2,1.5,0.5,2.3,0.7c-4-0.4-8-0.1-11.9-0.2l-9.9-0.2c-1.3,0-2.8-0.2-4.1,0l-3.3-0.1
	c-0.1-7.4-3.6-15.7-8.7-21c-1.9-2-4-3.9-6.3-5.4c-4.7-3.2-10.6-5.2-16.3-5.4c-0.4-4.8-0.5-9.7-0.7-14.5
	C83.7,28.3,83.5,23.6,83.4,18.8z"/>
<path class="st0" d="M112.2,80.3c0-0.3,0-0.5,0-0.8c0-0.3,0-0.5,0-0.7c0-0.2,0-0.5-0.1-0.7c0-0.2-0.1-0.5-0.1-0.7
	c0-0.2-0.1-0.5-0.1-0.7c0-0.2-0.1-0.5-0.1-0.7c0-0.2-0.1-0.5-0.1-0.7c0-0.2-0.1-0.5-0.2-0.7c-0.1-0.2-0.1-0.5-0.2-0.7
	c-0.1-0.2-0.1-0.5-0.2-0.7c-0.1-0.2-0.1-0.5-0.2-0.7c-0.1-0.2-0.1-0.5-0.2-0.7c-0.1-0.2-0.2-0.5-0.2-0.7c-0.1-0.2-0.2-0.5-0.3-0.7
	c-0.1-0.2-0.2-0.5-0.3-0.7c-0.1-0.2-0.2-0.5-0.3-0.7c-0.1-0.2-0.2-0.5-0.3-0.7c-0.1-0.2-0.2-0.5-0.3-0.7c-0.1-0.2-0.2-0.4-0.4-0.7
	c-0.1-0.2-0.2-0.4-0.4-0.7c-0.1-0.2-0.3-0.4-0.4-0.6c-0.1-0.2-0.3-0.4-0.4-0.6c-0.1-0.2-0.3-0.4-0.4-0.6c-0.1-0.2-0.3-0.4-0.4-0.6
	c-0.1-0.2-0.3-0.4-0.4-0.6c-0.2-0.2-0.3-0.4-0.5-0.6c-0.2-0.2-0.3-0.4-0.5-0.6c-0.2-0.2-0.3-0.4-0.5-0.6c-0.2-0.2-0.3-0.4-0.5-0.6
	c-0.2-0.2-0.3-0.4-0.5-0.5c-0.2-0.2-0.4-0.4-0.5-0.5c-0.2-0.2-0.4-0.3-0.5-0.5c-5.7-5.4-13.4-8-21.2-7.7c0,0-0.1,0-0.1,0
	c-7.9,0.5-15.6,3.9-20.9,9.9C55.1,67.2,52.6,75,53.2,83c0,0.2,0,0.5,0.1,0.7c0,0.2,0.1,0.5,0.1,0.7c0,0.2,0.1,0.5,0.1,0.7
	c0,0.2,0.1,0.5,0.1,0.7c0,0.2,0.1,0.5,0.1,0.7c0,0.2,0.1,0.5,0.2,0.7c0.1,0.2,0.1,0.5,0.2,0.7c0.1,0.2,0.1,0.5,0.2,0.7
	c0.1,0.2,0.1,0.5,0.2,0.7c0.1,0.2,0.1,0.5,0.2,0.7c0.1,0.2,0.2,0.5,0.2,0.7c0.1,0.2,0.2,0.5,0.3,0.7c0.1,0.2,0.2,0.5,0.3,0.7
	c0.1,0.2,0.2,0.4,0.3,0.7c0.1,0.2,0.2,0.4,0.3,0.7c0.1,0.2,0.2,0.4,0.3,0.7c0.1,0.2,0.2,0.4,0.3,0.6c0.1,0.2,0.2,0.4,0.4,0.6
	c0.1,0.2,0.2,0.4,0.4,0.6c0.1,0.2,0.3,0.4,0.4,0.6c0.1,0.2,0.3,0.4,0.4,0.6c0.1,0.2,0.3,0.4,0.4,0.6c0.1,0.2,0.3,0.4,0.4,0.6
	c0.1,0.2,0.3,0.4,0.4,0.6c0.2,0.2,0.3,0.4,0.5,0.6c0.2,0.2,0.3,0.4,0.5,0.6c0.2,0.2,0.3,0.4,0.5,0.5c0.2,0.2,0.3,0.4,0.5,0.5
	c0.2,0.2,0.3,0.4,0.5,0.5c0.2,0.2,0.3,0.3,0.5,0.5c0.2,0.2,0.4,0.3,0.5,0.5s0.4,0.3,0.6,0.5c0.2,0.2,0.4,0.3,0.5,0.5
	c0.2,0.1,0.4,0.3,0.5,0.4c0.2,0.1,0.4,0.3,0.6,0.4c0.2,0.1,0.4,0.3,0.6,0.4c0.2,0.1,0.4,0.3,0.6,0.4c0.2,0.1,0.4,0.3,0.6,0.4
	c0.2,0.1,0.4,0.3,0.6,0.4c0.2,0.1,0.4,0.2,0.6,0.4c0.2,0.1,0.4,0.2,0.6,0.3c0.2,0.1,0.4,0.2,0.6,0.3c0.2,0.1,0.4,0.2,0.6,0.3
	c0.2,0.1,0.4,0.2,0.6,0.3c0.2,0.1,0.4,0.2,0.6,0.3c0.2,0.1,0.4,0.2,0.6,0.3c0.2,0.1,0.4,0.2,0.7,0.3c0.2,0.1,0.4,0.2,0.7,0.2
	c0.2,0.1,0.4,0.2,0.7,0.2c0.2,0.1,0.4,0.1,0.7,0.2c0.2,0.1,0.4,0.1,0.7,0.2s0.4,0.1,0.7,0.2c0.2,0.1,0.5,0.1,0.7,0.2
	c0.2,0.1,0.5,0.1,0.7,0.1c0.2,0,0.5,0.1,0.7,0.1c0.2,0,0.5,0.1,0.7,0.1c0.2,0,0.5,0.1,0.7,0.1c0.2,0,0.5,0.1,0.7,0.1
	c0.2,0,0.5,0,0.7,0.1c0.2,0,0.5,0,0.7,0c0.2,0,0.5,0,0.7,0c0.2,0,0.5,0,0.7,0c0.2,0,0.5,0,0.7,0c0.2,0,0.5,0,0.7,0
	c7.3-0.2,15-4,20-9.2C109.2,95.9,112.4,87.9,112.2,80.3z M109.5,84.1c-0.2,1.5-0.5,3.1-0.9,4.6c-1,3.5-3,6.9-5.3,9.7
	c-4.4,5.4-11.4,9-18.3,9.6c-0.7,0.1-1.4,0.1-2.1,0.1c0,0.4-0.1,0.8-0.2,1.2c-0.1-0.4-0.2-0.9-0.3-1.3c-0.1,0-0.1,0.1-0.2,0.1
	c-0.7,0.1-1.6-0.1-2.4-0.2c-4.2-0.5-9-2.3-12.5-4.8c-3-2.2-4.8-4.1-7-7c-0.3-0.4-0.9-1.1-1-1.6l0-0.1c-0.1,0-0.1,0-0.1-0.1
	c-0.4-0.4-0.6-1.3-0.9-1.8c-1.5-3.3-2.8-7.4-2.7-11.1c0-0.2,0-0.2,0.1-0.3l-0.3-0.1l0-0.1c0.1-5,1.2-10.4,4-14.6
	c-0.1-0.1-0.2-0.2-0.3-0.3l0.1,0l0.3,0.1c1.2-1.5,2.3-3.1,3.7-4.5c4.1-4.2,9.9-7.1,15.7-7.9c0.2,0,0.4-0.1,0.7-0.1
	c0.2,0,0.4,0,0.7-0.1c0.2,0,0.4,0,0.7-0.1c0.2,0,0.4,0,0.7,0c0.2,0,0.5,0,0.7,0c0.2,0,0.5,0,0.7,0c0.2,0,0.5,0,0.7,0
	c0.2,0,0.5,0,0.7,0c0.2,0,0.4,0,0.7,0c0.2,0,0.4,0,0.7,0.1c0.2,0,0.4,0.1,0.7,0.1c0.2,0,0.4,0.1,0.7,0.1c0.2,0,0.4,0.1,0.7,0.1
	c0.2,0,0.4,0.1,0.7,0.1c0.2,0,0.4,0.1,0.7,0.1c0.2,0.1,0.4,0.1,0.7,0.2c0.2,0.1,0.4,0.1,0.7,0.2c0.2,0.1,0.4,0.1,0.6,0.2
	c0.2,0.1,0.4,0.1,0.6,0.2c0.2,0.1,0.4,0.1,0.6,0.2c0.2,0.1,0.4,0.2,0.6,0.2c0.2,0.1,0.4,0.2,0.6,0.3c0.2,0.1,0.4,0.2,0.6,0.3
	c0.2,0.1,0.4,0.2,0.6,0.3c0.2,0.1,0.4,0.2,0.6,0.3c0.2,0.1,0.4,0.2,0.6,0.3c0.2,0.1,0.4,0.2,0.6,0.3c0.2,0.1,0.4,0.2,0.6,0.3
	c0.2,0.1,0.4,0.2,0.6,0.4s0.4,0.2,0.6,0.4c0.2,0.1,0.4,0.3,0.6,0.4c0.2,0.1,0.4,0.3,0.5,0.4c4.8,3.7,8.2,9.1,9.7,15
	c0.3,1.2,0.5,2.3,0.6,3.5c0.1,0.6,0.4,2.7,0.1,3.1l0,0.1c0.1,0.1,0.1,0,0.1,0.2C109.9,82,109.6,83.2,109.5,84.1z"/>
<path class="st0" d="M75.4,88.1c0.9,0.8,1.7,1.5,2.7,2.2c-1.6,1.8-3.3,3.4-4.9,5.2c-0.5,0.6-1.2,1.1-1.7,1.7
	c-0.6,0.7-1.2,1.5-1.9,2.2c0.3-0.8,0.9-1.7,1.3-2.5C72.7,94.1,73.9,91,75.4,88.1z"/>
<path class="st0" d="M90.1,88.2c0.4,0.6,0.7,1.3,1.1,1.9c1.2,2.2,2.2,4.6,3.4,6.8c0.5,0.9,1,1.8,1.4,2.7c-0.7-0.8-1.3-1.6-2-2.3
	c-2.1-2.4-4.4-4.6-6.6-7C88.4,89.7,89.3,89,90.1,88.2z"/>
<path class="st0" d="M93.7,60.7c0,0.3-1.8,4.3-2.1,4.9c-0.4,1.1-0.8,2.1-1.2,3.2c-0.5,1.2-1,2.4-1.5,3.7c-0.5-0.5-1.1-0.8-1.7-1.2
	c-0.4-0.3-0.9-0.5-1.3-0.7c0.5-0.7,1-1.4,1.5-2c0.9-1.2,1.9-2.4,2.8-3.6C90.9,64.4,93.4,60.9,93.7,60.7z"/>
<path class="st0" d="M82.8,57.7l0.2,0c0.2,2.6,0.6,5.1,0.9,7.6c0.2,1.6,0.4,3.2,0.6,4.8c-1.1-0.1-2.2-0.1-3.3,0
	c0-1.4,0.3-2.8,0.5-4.1C82.1,63.3,82.5,60.5,82.8,57.7z"/>
<path class="st0" d="M71.9,60.8c0.3,0.1,1.7,2.3,2,2.7c1.8,2.5,3.7,4.8,5.5,7.2c-0.4,0.2-0.7,0.4-1.1,0.5c-0.7,0.3-1.3,0.7-2,1.2
	C74.8,68.6,73.4,64.7,71.9,60.8z"/>
<path class="st0" d="M92.8,83c1,0.6,1.8,1.4,2.8,2.1l5.9,4.6c0.8,0.6,1.5,1.3,2.3,1.9c-0.9-0.4-1.7-0.8-2.6-1.2
	c-1.7-0.9-3.6-1.6-5.3-2.4c-1.4-0.6-2.7-1.3-4.1-1.9C92,85.1,92.5,84.1,92.8,83z"/>
<path class="st0" d="M72.6,82.8c0.3,1.1,0.7,2.2,1.2,3.3c-1.7,0.9-3.4,1.6-5.2,2.4c-1.3,0.6-2.7,1.3-4,1.9c-0.9,0.4-1.9,0.8-2.8,1.2
	l0-0.1c0.8-0.6,1.6-1.3,2.5-1.9C67,87.2,69.9,85.1,72.6,82.8z"/>
<path class="st0" d="M103.1,66.2c-0.7,0.6-1.4,1.1-2,1.8L92,76.4c-0.5-1.1-1.1-2-1.9-2.8c3.5-2.1,7.1-4.1,10.7-6
	C101.7,67.1,102.4,66.6,103.1,66.2z"/>
<path class="st0" d="M92.7,78.3c1.4,0,2.8,0.1,4.2,0.2l7.2,0.5c1,0.1,2,0.2,3,0.2l0,0.1c-1,0.3-2,0.4-3,0.6
	c-1.2,0.1-2.4,0.3-3.6,0.5c-2.5,0.4-5,0.8-7.4,1.2C93,80.5,92.8,79.4,92.7,78.3z"/>
<path class="st0" d="M61.4,79c3.8-0.6,7.7-0.8,11.5-1.2c-0.2,1.1-0.4,2.2-0.4,3.3c-2.7-0.2-5.4-0.5-8.1-0.8c-1-0.1-2-0.2-3-0.4
	c-0.9-0.1-1.8-0.3-2.7-0.4l-0.2-0.1l0-0.1C59.4,79.2,60.4,79.1,61.4,79z"/>
<path class="st0" d="M62.1,66.3c-0.1-0.1-0.2-0.1-0.3-0.2l0.1,0l0.3,0.1c0.9,0.6,1.8,1,2.8,1.5c1.1,0.7,2.4,1.3,3.5,1.9l7,3.7
	c-0.7,0.9-1.5,1.9-1.9,2.9c-2-1.6-3.9-3.2-5.8-4.8c-1.1-0.9-2.2-1.9-3.3-2.8C63.6,67.8,62.8,67.1,62.1,66.3z"/>
<path class="st0" d="M74.4,78.1c0.7-2.2,2.1-4.1,4.2-5.3c2.1-1.1,4.6-1.5,6.8-0.7c2.1,0.7,4,2.3,5,4.2c0.5,1,0.8,2.1,1,3.2
	c0.3,2.4-0.3,5.2-1.9,7.1c-0.1,0.2-0.3,0.3-0.4,0.5c-0.1,0.2-0.3,0.3-0.4,0.5c-0.1,0.1-0.3,0.3-0.5,0.4c-0.2,0.1-0.3,0.3-0.5,0.4
	c-0.2,0.1-0.3,0.3-0.5,0.4c-0.2,0.1-0.4,0.2-0.5,0.3c-0.2,0.1-0.4,0.2-0.6,0.3c-0.2,0.1-0.4,0.2-0.6,0.3c-0.8,3.7-1.2,7.4-1.9,11.1
	c-0.2,1-0.3,2.1-0.6,3.1c0,0.4-0.1,0.7-0.2,1.1c-0.1-0.4-0.2-0.8-0.3-1.2c-0.2-0.9-0.4-1.9-0.5-2.8c-0.3-2.1-0.7-4.2-1-6.3
	c-0.3-1.6-0.5-3.3-0.9-4.9c-2-0.8-3.7-2.3-4.9-4.1C73.9,83.2,73.8,80.7,74.4,78.1z"/>
</svg>
